<svg width="150" height="150" viewBox="0 0 150 150" fill="none" xmlns="http://www.w3.org/2000/svg">
<g clip-path="url(#clip0_1_4)">
<rect width="150" height="150" rx="45" fill="white"/>
<rect width="150" height="150" fill="#FEFCE8"/>
<path d="M74.7306 133.65C62.5206 133.65 52.4556 132 44.5356 128.7C36.6156 125.4 30.6756 121.055 26.7156 115.665C22.7556 110.275 20.6656 104.555 20.4456 98.505C20.4456 97.515 20.7756 96.69 21.4356 96.03C22.2056 95.26 23.0856 94.875 24.0756 94.875H55.4256C57.1856 94.875 58.5056 95.15 59.3856 95.7C60.3756 96.14 61.4206 96.8 62.5206 97.68C64.0606 98.89 65.7656 99.825 67.6356 100.485C69.6156 101.145 71.9806 101.475 74.7306 101.475C78.4706 101.475 81.4406 101.09 83.6406 100.32C85.9506 99.44 87.1056 98.285 87.1056 96.855C87.1056 94.875 85.5656 93.39 82.4856 92.4C79.5156 91.3 73.9606 90.2 65.8206 89.1C52.8406 87.34 42.5006 83.6 34.8006 77.88C27.1006 72.16 23.2506 63.8 23.2506 52.8C23.2506 45.32 25.3406 38.72 29.5206 33C33.8106 27.28 39.6956 22.825 47.1756 19.635C54.7656 16.445 63.5656 14.85 73.5756 14.85C81.8256 14.85 89.1406 15.95 95.5206 18.15C101.901 20.24 107.291 23.045 111.691 26.565C116.091 29.975 119.446 33.66 121.756 37.62C124.066 41.58 125.276 45.375 125.386 49.005C125.386 49.995 125.001 50.875 124.231 51.645C123.571 52.305 122.801 52.635 121.921 52.635H88.9206C87.3806 52.635 86.1156 52.415 85.1256 51.975C84.2456 51.535 83.3106 50.875 82.3206 49.995C81.7706 49.445 80.7256 48.84 79.1856 48.18C77.7556 47.41 75.8856 47.025 73.5756 47.025C68.2956 47.025 65.6556 48.565 65.6556 51.645C65.6556 53.185 66.8656 54.56 69.2856 55.77C71.7056 56.87 76.6006 57.86 83.9706 58.74C94.9706 60.06 103.771 62.205 110.371 65.175C117.081 68.035 121.921 71.885 124.891 76.725C127.971 81.565 129.511 87.56 129.511 94.71C129.511 102.74 127.091 109.67 122.251 115.5C117.521 121.33 111.031 125.84 102.781 129.03C94.5306 132.11 85.1806 133.65 74.7306 133.65ZM75.5556 20.955C74.6756 20.185 73.9056 19.745 73.2456 19.635C72.5856 19.525 71.7606 19.855 70.7706 20.625C69.8906 21.175 69.5606 21.78 69.7806 22.44C70.1106 22.99 70.4406 23.815 70.7706 24.915C70.9906 25.795 71.2106 26.51 71.4306 27.06C71.6506 27.61 72.2556 27.885 73.2456 27.885C74.3456 27.885 75.1706 27.775 75.7206 27.555C76.2706 27.225 76.7656 26.51 77.2056 25.41C77.5356 24.31 77.5906 23.485 77.3706 22.935C77.1506 22.275 76.5456 21.615 75.5556 20.955ZM60.7056 24.09C59.9356 23.1 59.2206 22.605 58.5606 22.605C57.9006 22.495 56.9656 22.605 55.7556 22.935C54.4356 23.375 53.4456 23.815 52.7856 24.255C52.1256 24.585 51.7956 25.465 51.7956 26.895C51.7956 28.105 52.1806 28.82 52.9506 29.04C53.8306 29.15 54.8756 29.37 56.0856 29.7C57.1856 30.03 58.0656 30.305 58.7256 30.525C59.3856 30.635 60.0456 30.195 60.7056 29.205C61.4756 28.215 61.8606 27.39 61.8606 26.73C61.8606 25.96 61.4756 25.08 60.7056 24.09ZM84.4656 33.825H82.4856L83.1456 35.475L84.3006 36.135L85.4556 34.98L84.4656 33.825ZM74.2356 35.31L72.7506 34.32L71.1006 34.65L71.4306 36.465L73.2456 37.125L74.2356 35.31ZM59.7156 39.105L58.7256 38.94L57.7356 40.095L59.0556 40.755L60.3756 40.26L59.7156 39.105ZM46.3506 39.765C44.9206 39.545 43.7656 39.545 42.8856 39.765C42.1156 39.985 41.4006 40.81 40.7406 42.24C39.6406 44.22 38.5956 45.815 37.6056 47.025C36.7256 48.125 37.1106 49.555 38.7606 51.315C40.7406 53.295 42.4456 54.505 43.8756 54.945C45.3056 55.275 47.2856 54.835 49.8156 53.625C52.3456 52.415 53.8306 51.095 54.2706 49.665C54.8206 48.235 54.8756 46.145 54.4356 43.395C54.2156 41.195 53.3356 40.15 51.7956 40.26C50.3656 40.37 48.5506 40.205 46.3506 39.765ZM119.941 44.385C119.941 43.395 119.831 42.68 119.611 42.24C119.391 41.69 118.841 41.25 117.961 40.92C117.081 40.7 116.531 40.865 116.311 41.415C116.091 41.855 115.706 42.46 115.156 43.23C114.496 44.22 114.441 45.045 114.991 45.705C115.541 46.475 115.926 47.135 116.146 47.685C116.476 48.235 117.081 48.345 117.961 48.015C118.951 47.685 119.501 47.245 119.611 46.695C119.831 46.145 119.941 45.375 119.941 44.385ZM67.8006 42.405L66.6456 41.58L65.6556 42.57V44.385H67.8006V42.405ZM106.411 42.405C105.421 41.855 104.486 42.02 103.606 42.9C102.836 43.67 102.726 44.55 103.276 45.54C103.606 46.42 104.376 46.75 105.586 46.53C106.466 46.31 107.016 45.76 107.236 44.88C107.346 44.22 107.346 43.725 107.236 43.395C107.236 42.955 106.961 42.625 106.411 42.405ZM58.2306 65.01C57.4606 62.26 56.3056 60.665 54.7656 60.225C53.3356 59.675 51.1906 59.345 48.3306 59.235C45.5806 59.125 43.5456 59.345 42.2256 59.895C40.9056 60.335 39.7506 61.82 38.7606 64.35C37.7706 66.77 37.7156 68.585 38.5956 69.795C39.4756 70.895 40.9056 72.27 42.8856 73.92C45.1956 75.68 47.0106 77.055 48.3306 78.045C49.6506 79.035 51.5206 78.76 53.9406 77.22C56.6906 75.46 58.2856 73.81 58.7256 72.27C59.1656 70.62 59.0006 68.2 58.2306 65.01ZM73.2456 63.855C72.4756 63.305 71.8706 62.975 71.4306 62.865C70.9906 62.645 70.3306 62.755 69.4506 63.195C68.4606 63.855 67.6356 64.405 66.9756 64.845C66.4256 65.285 66.3156 66.11 66.6456 67.32C66.9756 68.64 67.3606 69.575 67.8006 70.125C68.3506 70.675 69.3406 71.005 70.7706 71.115C72.3106 71.225 73.4106 71.115 74.0706 70.785C74.7306 70.345 75.3906 69.465 76.0506 68.145C76.4906 67.045 76.3256 66.275 75.5556 65.835C74.8956 65.395 74.1256 64.735 73.2456 63.855ZM87.1056 68.64C86.8856 67.65 86.5556 66.99 86.1156 66.66C85.7856 66.33 85.1806 66.165 84.3006 66.165C82.8706 66.165 81.7156 66.055 80.8356 65.835C79.9556 65.615 79.2406 66.165 78.6906 67.485C78.1406 69.025 78.0306 70.18 78.3606 70.95C78.8006 71.72 79.6256 72.6 80.8356 73.59C82.1556 74.58 83.2006 75.185 83.9706 75.405C84.8506 75.515 86.0056 75.13 87.4356 74.25C88.5356 73.48 88.8656 72.71 88.4256 71.94C87.9856 71.06 87.5456 69.96 87.1056 68.64ZM77.0406 77.715C76.4906 77.055 75.9956 76.725 75.5556 76.725C75.1156 76.725 74.4556 76.89 73.5756 77.22C72.3656 77.66 71.8156 78.54 71.9256 79.86C71.9256 80.74 71.9806 81.455 72.0906 82.005C72.3106 82.445 72.8606 82.775 73.7406 82.995C74.7306 83.325 75.5006 83.49 76.0506 83.49C76.7106 83.38 77.3706 82.885 78.0306 82.005C78.5806 81.015 78.6906 80.3 78.3606 79.86C78.1406 79.31 77.7006 78.595 77.0406 77.715ZM110.206 83.655C109.766 80.795 108.721 79.145 107.071 78.705C105.531 78.265 103.386 77.825 100.636 77.385C98.1056 76.945 96.1806 76.945 94.8606 77.385C93.6506 77.715 92.4956 78.98 91.3956 81.18C90.2956 83.27 90.1856 84.865 91.0656 85.965C91.9456 86.955 93.1556 88.275 94.6956 89.925C96.4556 91.575 97.8306 92.895 98.8206 93.885C99.8106 94.765 101.351 94.655 103.441 93.555C106.191 92.125 108.116 90.86 109.216 89.76C110.316 88.55 110.646 86.515 110.206 83.655ZM110.371 96.855L108.391 96.69L108.061 98.34L109.051 99.99L110.371 98.67V96.855ZM118.951 99.165L118.126 97.68L116.311 98.505L116.971 100.155L118.621 101.145L118.951 99.165ZM43.0506 104.445C41.6206 102.575 40.4106 101.2 39.4206 100.32C38.5406 99.44 36.9456 99.385 34.6356 100.155C32.1056 101.035 30.4006 102.025 29.5206 103.125C28.6406 104.225 28.2006 106.095 28.2006 108.735C28.2006 111.485 28.6406 113.465 29.5206 114.675C30.4006 115.775 32.1606 116.765 34.8006 117.645C37.4406 118.415 39.4206 118.58 40.7406 118.14C42.1706 117.59 43.6556 116.16 45.1956 113.85C46.5156 111.87 46.8456 110.33 46.1856 109.23C45.5256 108.02 44.4806 106.425 43.0506 104.445ZM58.8906 107.085C58.5606 105.545 58.3406 104.28 58.2306 103.29C58.2306 102.19 57.4606 101.585 55.9206 101.475C54.3806 101.365 53.5556 101.86 53.4456 102.96C53.3356 103.95 52.9506 105.16 52.2906 106.59C51.9606 107.69 51.7406 108.57 51.6306 109.23C51.6306 109.89 52.0706 110.55 52.9506 111.21C54.1606 112.2 55.0956 113.025 55.7556 113.685C56.5256 114.235 57.6256 114.07 59.0556 113.19C60.2656 112.31 60.6506 111.43 60.2106 110.55C59.7706 109.67 59.3306 108.515 58.8906 107.085ZM116.641 105.435C115.981 105.215 115.486 105.105 115.156 105.105C114.826 104.995 114.441 105.16 114.001 105.6C113.561 106.15 113.396 106.59 113.506 106.92C113.616 107.25 113.836 107.69 114.166 108.24C114.606 109.01 114.881 109.67 114.991 110.22C115.211 110.77 115.761 110.935 116.641 110.715C117.521 110.605 117.851 110.275 117.631 109.725C117.521 109.065 117.521 108.295 117.631 107.415C117.741 106.425 117.411 105.765 116.641 105.435ZM92.2206 107.91C91.5606 107.14 90.9556 106.7 90.4056 106.59C89.8556 106.48 89.0856 106.59 88.0956 106.92C87.1056 107.25 86.5006 107.635 86.2806 108.075C86.0606 108.515 85.9506 109.23 85.9506 110.22C85.9506 111.1 86.1156 111.65 86.4456 111.87C86.8856 112.09 87.4906 112.31 88.2606 112.53C89.0306 112.75 89.6356 112.86 90.0756 112.86C90.5156 112.86 90.9556 112.53 91.3956 111.87C91.9456 111.1 92.3306 110.495 92.5506 110.055C92.8806 109.505 92.7706 108.79 92.2206 107.91ZM100.801 108.405C100.361 108.185 99.9756 108.02 99.6456 107.91C99.4256 107.69 99.0956 107.745 98.6556 108.075C98.2156 108.625 97.9406 109.065 97.8306 109.395C97.7206 109.725 97.8306 110.165 98.1606 110.715C98.4906 111.265 98.8206 111.485 99.1506 111.375C99.4806 111.265 99.9756 111.155 100.636 111.045C101.406 110.825 101.846 110.385 101.956 109.725C102.066 109.175 101.681 108.735 100.801 108.405ZM79.1856 112.035L77.8656 112.2V113.52L79.0206 114.345L79.6806 113.19L79.1856 112.035ZM64.8306 114.84C64.1706 114.4 63.6756 114.29 63.3456 114.51C63.0156 114.73 62.5756 115.06 62.0256 115.5C61.3656 116.05 60.8156 116.435 60.3756 116.655C59.9356 116.875 59.8256 117.425 60.0456 118.305C60.3756 119.075 60.7606 119.515 61.2006 119.625C61.6406 119.735 62.3006 119.79 63.1806 119.79C64.0606 119.79 64.7206 119.735 65.1606 119.625C65.6006 119.405 65.9306 118.91 66.1506 118.14C66.3706 117.26 66.3706 116.655 66.1506 116.325C65.9306 115.885 65.4906 115.39 64.8306 114.84ZM97.5006 121.11C97.3906 120.56 97.2256 120.175 97.0056 119.955C96.8956 119.625 96.5656 119.46 96.0156 119.46C95.0256 119.46 94.3656 120.01 94.0356 121.11C93.8156 121.99 94.0906 122.705 94.8606 123.255C95.7406 123.805 96.5656 123.805 97.3356 123.255C97.7756 122.925 97.9406 122.595 97.8306 122.265C97.8306 121.935 97.7206 121.55 97.5006 121.11Z" fill="#EAB308"/>
</g>
<defs>
<clipPath id="clip0_1_4">
<rect width="150" height="150" rx="45" fill="white"/>
</clipPath>
</defs>
</svg>
